<?xml version="1.0" encoding="UTF-8"?>
<svg id="Calque_1" xmlns="http://www.w3.org/2000/svg" version="1.1" viewBox="0 0 45 42">
  <!-- Generator: Adobe Illustrator 29.6.1, SVG Export Plug-In . SVG Version: 2.1.1 Build 9)  -->
  <defs>
    <style>
      .st0 {
        fill: #1d4651;
        stroke: #ebfe9d;
        stroke-miterlimit: 10;
        stroke-width: .75px;
      }

      .st1 {
        fill: #ebfe9d;
      }
    </style>
  </defs>
  <circle class="st0" cx="22.5" cy="21" r="20.48"/>
  <path class="st1" d="M15.11,10.65c0,1.43.6,2.71,1.54,3.39.39.28.69.65.82,1.11,1.03,3.79,1.78,9.94.8,10.53-1.17.71-3.1.07-4.91-1.15-.35-.24-.55-.63-.6-1.05-.1-.85-.63-1.68-1.46-2.21-1.37-.88-3.08-.67-3.81.47-.74,1.14-.23,2.78,1.14,3.66.8.52,1.59.4,2.43.25.52-.09,1.06.02,1.5.32,3.77,2.62,4.2,8.45,8.82,9.21,3.17.52,6.35-3.02,10.22-5.26.54-.31,1.18-.47,1.79-.34.99.21,2.14-.05,3.06-.72,1.46-1.09,1.84-2.87.84-3.99-1-1.11-3-1.14-4.47-.05-.83.62-1.33,1.48-1.39,2.33-.03.52-.38.96-.85,1.17-1.11.51-2.1.54-2.68-.23-1.22-1.63.69-6.84,2.69-10.56.3-.55.75-1.01,1.33-1.24.96-.38,1.81-1.24,2.29-2.36.86-1.99.31-4.13-1.23-4.8-1.55-.67-3.49.39-4.35,2.38-.43.99-.52,2.06-.26,2.96.16.56.23,1.13.14,1.7-.71,4.24-1.69,8.35-5.29,7.98-3.01-.48-3.74-4.67-3.5-9.61.02-.41.19-.8.45-1.13.58-.73.92-1.74.92-2.8,0-2.15-1.34-3.89-3-3.89s-3,1.74-3,3.89h.01Z"/>
</svg>