<?xml version="1.0" encoding="UTF-8"?>
<svg id="Calque_1" xmlns="http://www.w3.org/2000/svg" version="1.1" viewBox="0 0 45 42">
  <!-- Generator: Adobe Illustrator 29.6.1, SVG Export Plug-In . SVG Version: 2.1.1 Build 9)  -->
  <defs>
    <style>
      .st0 {
        fill: #1d4651;
      }
    </style>
  </defs>
  <path class="st0" d="M11.74,5.92c0,2.08.88,3.95,2.24,4.94.57.41,1.01.95,1.2,1.62,1.5,5.51,2.59,14.46,1.17,15.33-1.7,1.04-4.51.1-7.15-1.67-.51-.35-.8-.91-.88-1.53-.14-1.23-.92-2.44-2.12-3.22-2-1.28-4.48-.98-5.55.69-1.07,1.66-.33,4.05,1.66,5.33,1.17.75,2.31.58,3.54.37.76-.13,1.55.03,2.18.47,5.49,3.81,6.11,12.3,12.84,13.41,4.61.76,9.24-4.4,14.87-7.65.79-.45,1.72-.68,2.61-.49,1.44.31,3.12-.07,4.45-1.05,2.13-1.58,2.68-4.18,1.22-5.8-1.46-1.62-4.37-1.66-6.51-.07-1.21.9-1.94,2.15-2.02,3.39-.05.75-.56,1.39-1.24,1.7-1.62.74-3.05.79-3.9-.34-1.78-2.37,1.01-9.95,3.92-15.37.43-.8,1.09-1.47,1.93-1.81,1.39-.56,2.63-1.8,3.34-3.43,1.25-2.89.45-6.01-1.79-6.99-2.25-.98-5.08.57-6.33,3.46-.63,1.44-.75,3-.38,4.31.23.81.34,1.65.2,2.48-1.03,6.17-2.46,12.15-7.7,11.61-4.38-.7-5.45-6.8-5.09-13.98.03-.6.27-1.17.65-1.65.85-1.06,1.34-2.53,1.34-4.08,0-3.13-1.95-5.66-4.36-5.66-2.41,0-4.36,2.53-4.36,5.66Z"/>
</svg>